<svg width="76" height="76" viewBox="0 0 76 76" fill="none" xmlns="http://www.w3.org/2000/svg">
<path d="M29.0942 8.06466C30.5917 -2.20356 45.4083 -2.20354 46.9058 8.06467L48.6142 19.7788C49.1887 23.7177 52.2823 26.8113 56.2212 27.3858L67.9353 29.0942C78.2036 30.5917 78.2035 45.4083 67.9353 46.9058L56.2212 48.6142C52.2823 49.1887 49.1887 52.2823 48.6142 56.2212L46.9058 67.9353C45.4083 78.2036 30.5917 78.2035 29.0942 67.9353L27.3858 56.2212C26.8113 52.2823 23.7177 49.1887 19.7788 48.6142L8.06466 46.9058C-2.20356 45.4083 -2.20354 30.5917 8.06467 29.0942L19.7788 27.3858C23.7177 26.8113 26.8113 23.7177 27.3858 19.7788L29.0942 8.06466Z" fill="#FF8743"/>
</svg>
