<svg width="327" height="327" viewBox="0 0 327 327" fill="none" xmlns="http://www.w3.org/2000/svg">
<path d="M141.565 14.399C150.008 -4.61456 176.992 -4.61457 185.435 14.399L196.778 39.9445C201.966 51.6296 215.404 57.1958 227.336 52.6021L253.42 42.5594C272.835 35.0847 291.915 54.1654 284.441 73.58L274.398 99.6641C269.804 111.596 275.37 125.034 287.055 130.222L312.601 141.565C331.615 150.008 331.615 176.992 312.601 185.435L287.055 196.778C275.37 201.966 269.804 215.404 274.398 227.336L284.441 253.42C291.915 272.835 272.835 291.915 253.42 284.441L227.336 274.398C215.404 269.804 201.966 275.37 196.778 287.055L185.435 312.601C176.992 331.615 150.008 331.615 141.565 312.601L130.222 287.055C125.034 275.37 111.596 269.804 99.6641 274.398L73.58 284.441C54.1655 291.915 35.0846 272.835 42.5594 253.42L52.6021 227.336C57.1958 215.404 51.6296 201.966 39.9445 196.778L14.399 185.435C-4.61456 176.992 -4.61457 150.008 14.399 141.565L39.9445 130.222C51.6296 125.034 57.1958 111.596 52.6021 99.6641L42.5594 73.58C35.0847 54.1655 54.1654 35.0847 73.58 42.5594L99.6641 52.6021C111.596 57.1958 125.034 51.6296 130.222 39.9445L141.565 14.399Z" fill="#FF8743"/>
</svg>
